# MagicaVoxel @ Ephtracy

# group
o 

# material
mtllib untitled.mtl
usemtl palette

# normals
vn -1 0 0
vn 1 0 0
vn 0 0 1
vn 0 0 -1
vn 0 -1 0
vn 0 1 0

# texcoords
vt 0.0175781 0.5
vt 0.0449219 0.5
vt 0.537109 0.5
vt 0.701172 0.5

# verts
v -1.7 0 1.6
v -1.7 0 1.4
v -1.7 0.1 1.6
v -1.7 0.1 1.4
v -1.6 0 1.4
v -1.6 0 1.3
v -1.6 0.1 1.4
v -1.6 0.1 1.3
v -1.5 0 1.3
v -1.5 0 1.2
v -1.5 0.1 1.3
v -1.5 0.1 1.2
v -1.4 0 1.2
v -1.4 0 1.1
v -1.4 0.1 1.2
v -1.4 0.1 1.1
v -1.3 0 1.1
v -1.3 0 1
v -1.3 0.1 1.1
v -1.3 0.1 1
v -1.2 0 1
v -1.2 0 0.9
v -1.2 0.1 1
v -1.2 0.1 0.9
v -1.1 0 0.9
v -1.1 0 0.8
v -1.1 0.1 0.9
v -1.1 0.1 0.8
v -1 0 0.8
v -1 0 0.7
v -1 0.1 0.8
v -1 0.1 0.7
v -0.9 0 0.7
v -0.9 0 0.6
v -0.9 0.1 0.7
v -0.9 0.1 0.6
v -0.8 0 0.6
v -0.8 0 0.5
v -0.8 0.1 0.6
v -0.8 0.1 0.5
v -0.7 0 0.5
v -0.7 0 0.4
v -0.7 0.1 0.5
v -0.7 0.1 0.4
v -0.6 0 0.4
v -0.6 0 0.3
v -0.6 0.1 0.4
v -0.6 0.1 0.3
v -0.5 0 0.3
v -0.5 0 0.2
v -0.5 0.1 0.3
v -0.5 0.1 0.2
v -0.4 0 0.2
v -0.4 0 0.1
v -0.4 0.1 0.2
v -0.4 0.1 0.1
v -0.3 0 0.1
v -0.3 0 0
v -0.3 0 -0.1
v -0.3 0.1 0.1
v -0.3 0.1 0
v -0.3 0.1 -0.1
v -0.2 0 -0.1
v -0.2 0 -0.2
v -0.2 0.1 -0.1
v -0.2 0.1 -0.2
v -0.0999999 0 -0.2
v -0.0999999 0 -0.3
v -0.0999999 0.1 -0.2
v -0.0999999 0.1 -0.3
v 1.19209e-07 0 -0.3
v 1.19209e-07 0 -0.4
v 1.19209e-07 0.1 -0.3
v 1.19209e-07 0.1 -0.4
v 0.1 0 -0.4
v 0.1 0 -0.5
v 0.1 0.1 -0.4
v 0.1 0.1 -0.5
v 0.2 0 -0.5
v 0.2 0 -0.6
v 0.2 0.1 -0.5
v 0.2 0.1 -0.6
v -1.5 0 1.6
v -1.5 0 1.5
v -1.5 0.1 1.6
v -1.5 0.1 1.5
v -1.4 0 1.5
v -1.4 0 1.4
v -1.4 0.1 1.5
v -1.4 0.1 1.4
v -1.3 0 1.4
v -1.3 0 1.3
v -1.3 0.1 1.4
v -1.3 0.1 1.3
v -1.2 0 1.3
v -1.2 0 1.2
v -1.2 0.1 1.3
v -1.2 0.1 1.2
v -1.1 0 1.2
v -1.1 0 1.1
v -1.1 0.1 1.2
v -1.1 0.1 1.1
v -1 0 1.1
v -1 0 1
v -1 0.1 1.1
v -1 0.1 1
v -0.9 0 1
v -0.9 0 0.9
v -0.9 0.1 1
v -0.9 0.1 0.9
v -0.8 0 0.9
v -0.8 0 0.8
v -0.8 0.1 0.9
v -0.8 0.1 0.8
v -0.7 0 0.8
v -0.7 0 0.7
v -0.7 0.1 0.8
v -0.7 0.1 0.7
v -0.6 0 0.7
v -0.6 0 0.6
v -0.6 0.1 0.7
v -0.6 0.1 0.6
v -0.5 0 0.6
v -0.5 0 0.5
v -0.5 0.1 0.6
v -0.5 0.1 0.5
v -0.4 0 0.5
v -0.4 0 0.4
v -0.4 0.1 0.5
v -0.4 0.1 0.4
v -0.3 0 0.4
v -0.3 0 0.3
v -0.3 0.1 0.4
v -0.3 0.1 0.3
v -0.2 0 0.3
v -0.2 0 0.2
v -0.2 0.1 0.3
v -0.2 0.1 0.2
v 1.19209e-07 0 0.2
v 1.19209e-07 0 0.1
v 1.19209e-07 0.1 0.2
v 1.19209e-07 0.1 0.1
v 0.1 0 0.1
v 0.1 0 0
v 0.1 0.1 0.1
v 0.1 0.1 0
v 0.2 0 0
v 0.2 0 -0.1
v 0.2 0.1 0
v 0.2 0.1 -0.1
v 0.3 0 -0.1
v 0.3 0 -0.2
v 0.3 0.1 -0.1
v 0.3 0.1 -0.2
v 0.4 0 -0.2
v 0.4 0 -0.3
v 0.4 0 -0.5
v 0.4 0 -0.6
v 0.4 0.1 -0.2
v 0.4 0.1 -0.3
v 0.4 0.1 -0.5
v 0.4 0.1 -0.6
v 0.5 0 -0.3
v 0.5 0 -0.5
v 0.5 0.1 -0.3
v 0.5 0.1 -0.5
v -1.7 0 1.6
v -1.7 0.1 1.6
v -1.5 0 1.6
v -1.5 0.1 1.6
v -1.5 0 1.5
v -1.5 0.1 1.5
v -1.4 0 1.5
v -1.4 0.1 1.5
v -1.4 0 1.4
v -1.4 0.1 1.4
v -1.3 0 1.4
v -1.3 0.1 1.4
v -1.3 0 1.3
v -1.3 0.1 1.3
v -1.2 0 1.3
v -1.2 0.1 1.3
v -1.2 0 1.2
v -1.2 0.1 1.2
v -1.1 0 1.2
v -1.1 0.1 1.2
v -1.1 0 1.1
v -1.1 0.1 1.1
v -1 0 1.1
v -1 0.1 1.1
v -1 0 1
v -1 0.1 1
v -0.9 0 1
v -0.9 0.1 1
v -0.9 0 0.9
v -0.9 0.1 0.9
v -0.8 0 0.9
v -0.8 0.1 0.9
v -0.8 0 0.8
v -0.8 0.1 0.8
v -0.7 0 0.8
v -0.7 0.1 0.8
v -0.7 0 0.7
v -0.7 0.1 0.7
v -0.6 0 0.7
v -0.6 0.1 0.7
v -0.6 0 0.6
v -0.6 0.1 0.6
v -0.5 0 0.6
v -0.5 0.1 0.6
v -0.5 0 0.5
v -0.5 0.1 0.5
v -0.4 0 0.5
v -0.4 0.1 0.5
v -0.4 0 0.4
v -0.4 0.1 0.4
v -0.3 0 0.4
v -0.3 0.1 0.4
v -0.3 0 0.3
v -0.3 0.1 0.3
v -0.2 0 0.3
v -0.2 0.1 0.3
v -0.2 0 0.2
v -0.2 0.1 0.2
v -0.0999999 0 0.2
v -0.0999999 0.1 0.2
v 1.19209e-07 0 0.2
v 1.19209e-07 0.1 0.2
v 1.19209e-07 0 0.1
v 1.19209e-07 0.1 0.1
v 0.1 0 0.1
v 0.1 0.1 0.1
v 0.1 0 0
v 0.1 0.1 0
v 0.2 0 0
v 0.2 0.1 0
v 0.2 0 -0.1
v 0.2 0.1 -0.1
v 0.3 0 -0.1
v 0.3 0.1 -0.1
v 0.3 0 -0.2
v 0.3 0.1 -0.2
v 0.4 0 -0.2
v 0.4 0.1 -0.2
v 0.4 0 -0.3
v 0.4 0.1 -0.3
v 0.5 0 -0.3
v 0.5 0.1 -0.3
v -1.7 0 1.4
v -1.7 0.1 1.4
v -1.6 0 1.4
v -1.6 0.1 1.4
v -1.6 0 1.3
v -1.6 0.1 1.3
v -1.5 0 1.3
v -1.5 0.1 1.3
v -1.5 0 1.2
v -1.5 0.1 1.2
v -1.4 0 1.2
v -1.4 0.1 1.2
v -1.4 0 1.1
v -1.4 0.1 1.1
v -1.3 0 1.1
v -1.3 0.1 1.1
v -1.3 0 1
v -1.3 0.1 1
v -1.2 0 1
v -1.2 0.1 1
v -1.2 0 0.9
v -1.2 0.1 0.9
v -1.1 0 0.9
v -1.1 0.1 0.9
v -1.1 0 0.8
v -1.1 0.1 0.8
v -1 0 0.8
v -1 0.1 0.8
v -1 0 0.7
v -1 0.1 0.7
v -0.9 0 0.7
v -0.9 0.1 0.7
v -0.9 0 0.6
v -0.9 0.1 0.6
v -0.8 0 0.6
v -0.8 0.1 0.6
v -0.8 0 0.5
v -0.8 0.1 0.5
v -0.7 0 0.5
v -0.7 0.1 0.5
v -0.7 0 0.4
v -0.7 0.1 0.4
v -0.6 0 0.4
v -0.6 0.1 0.4
v -0.6 0 0.3
v -0.6 0.1 0.3
v -0.5 0 0.3
v -0.5 0.1 0.3
v -0.5 0 0.2
v -0.5 0.1 0.2
v -0.4 0 0.2
v -0.4 0.1 0.2
v -0.4 0 0.1
v -0.4 0.1 0.1
v -0.3 0 0.1
v -0.3 0.1 0.1
v -0.3 0 -0.1
v -0.3 0.1 -0.1
v -0.2 0 -0.1
v -0.2 0.1 -0.1
v -0.2 0 -0.2
v -0.2 0.1 -0.2
v -0.0999999 0 -0.2
v -0.0999999 0.1 -0.2
v -0.0999999 0 -0.3
v -0.0999999 0.1 -0.3
v 1.19209e-07 0 -0.3
v 1.19209e-07 0.1 -0.3
v 1.19209e-07 0 -0.4
v 1.19209e-07 0.1 -0.4
v 0.1 0 -0.4
v 0.1 0.1 -0.4
v 0.1 0 -0.5
v 0.1 0.1 -0.5
v 0.2 0 -0.5
v 0.2 0.1 -0.5
v 0.4 0 -0.5
v 0.4 0.1 -0.5
v 0.5 0 -0.5
v 0.5 0.1 -0.5
v 0.2 0 -0.6
v 0.2 0.1 -0.6
v 0.4 0 -0.6
v 0.4 0.1 -0.6
v -1.7 0 1.6
v -1.5 0 1.6
v -1.6 0 1.5
v -1.5 0 1.5
v -1.4 0 1.5
v -1.7 0 1.4
v -1.6 0 1.4
v -1.5 0 1.4
v -1.4 0 1.4
v -1.3 0 1.4
v -1.6 0 1.3
v -1.5 0 1.3
v -1.4 0 1.3
v -1.3 0 1.3
v -1.2 0 1.3
v -1.5 0 1.2
v -1.4 0 1.2
v -1.3 0 1.2
v -1.2 0 1.2
v -1.1 0 1.2
v -1.4 0 1.1
v -1.3 0 1.1
v -1.2 0 1.1
v -1.1 0 1.1
v -1 0 1.1
v -1.3 0 1
v -1.2 0 1
v -1.1 0 1
v -1 0 1
v -0.9 0 1
v -1.2 0 0.9
v -1.1 0 0.9
v -1 0 0.9
v -0.9 0 0.9
v -0.8 0 0.9
v -1.1 0 0.8
v -1 0 0.8
v -0.9 0 0.8
v -0.8 0 0.8
v -0.7 0 0.8
v -1 0 0.7
v -0.9 0 0.7
v -0.8 0 0.7
v -0.7 0 0.7
v -0.6 0 0.7
v -0.9 0 0.6
v -0.8 0 0.6
v -0.7 0 0.6
v -0.6 0 0.6
v -0.5 0 0.6
v -0.8 0 0.5
v -0.7 0 0.5
v -0.6 0 0.5
v -0.5 0 0.5
v -0.4 0 0.5
v -0.7 0 0.4
v -0.6 0 0.4
v -0.5 0 0.4
v -0.4 0 0.4
v -0.3 0 0.4
v -0.6 0 0.3
v -0.5 0 0.3
v -0.4 0 0.3
v -0.3 0 0.3
v -0.2 0 0.3
v -0.5 0 0.2
v -0.4 0 0.2
v -0.3 0 0.2
v -0.2 0 0.2
v -0.0999999 0 0.2
v 1.19209e-07 0 0.2
v -0.4 0 0.1
v -0.3 0 0.1
v -0.2 0 0.1
v -0.0999999 0 0.1
v 1.19209e-07 0 0.1
v 0.1 0 0.1
v -0.3 0 0
v -0.2 0 0
v -0.0999999 0 0
v 1.19209e-07 0 0
v 0.1 0 0
v 0.2 0 0
v -0.3 0 -0.1
v -0.2 0 -0.1
v -0.0999999 0 -0.1
v 0.1 0 -0.1
v 0.2 0 -0.1
v 0.3 0 -0.1
v -0.2 0 -0.2
v -0.0999999 0 -0.2
v 1.19209e-07 0 -0.2
v 0.2 0 -0.2
v 0.3 0 -0.2
v 0.4 0 -0.2
v -0.0999999 0 -0.3
v 1.19209e-07 0 -0.3
v 0.1 0 -0.3
v 0.3 0 -0.3
v 0.4 0 -0.3
v 0.5 0 -0.3
v 1.19209e-07 0 -0.4
v 0.1 0 -0.4
v 0.2 0 -0.4
v 0.1 0 -0.5
v 0.2 0 -0.5
v 0.4 0 -0.5
v 0.5 0 -0.5
v 0.2 0 -0.6
v 0.4 0 -0.6
v -1.7 0.1 1.6
v -1.5 0.1 1.6
v -1.6 0.1 1.5
v -1.5 0.1 1.5
v -1.4 0.1 1.5
v -1.7 0.1 1.4
v -1.6 0.1 1.4
v -1.5 0.1 1.4
v -1.4 0.1 1.4
v -1.3 0.1 1.4
v -1.6 0.1 1.3
v -1.5 0.1 1.3
v -1.4 0.1 1.3
v -1.3 0.1 1.3
v -1.2 0.1 1.3
v -1.5 0.1 1.2
v -1.4 0.1 1.2
v -1.3 0.1 1.2
v -1.2 0.1 1.2
v -1.1 0.1 1.2
v -1.4 0.1 1.1
v -1.3 0.1 1.1
v -1.2 0.1 1.1
v -1.1 0.1 1.1
v -1 0.1 1.1
v -1.3 0.1 1
v -1.2 0.1 1
v -1.1 0.1 1
v -1 0.1 1
v -0.9 0.1 1
v -1.2 0.1 0.9
v -1.1 0.1 0.9
v -1 0.1 0.9
v -0.9 0.1 0.9
v -0.8 0.1 0.9
v -1.1 0.1 0.8
v -1 0.1 0.8
v -0.9 0.1 0.8
v -0.8 0.1 0.8
v -0.7 0.1 0.8
v -1 0.1 0.7
v -0.9 0.1 0.7
v -0.8 0.1 0.7
v -0.7 0.1 0.7
v -0.6 0.1 0.7
v -0.9 0.1 0.6
v -0.8 0.1 0.6
v -0.7 0.1 0.6
v -0.6 0.1 0.6
v -0.5 0.1 0.6
v -0.8 0.1 0.5
v -0.7 0.1 0.5
v -0.6 0.1 0.5
v -0.5 0.1 0.5
v -0.4 0.1 0.5
v -0.7 0.1 0.4
v -0.6 0.1 0.4
v -0.5 0.1 0.4
v -0.4 0.1 0.4
v -0.3 0.1 0.4
v -0.6 0.1 0.3
v -0.5 0.1 0.3
v -0.4 0.1 0.3
v -0.3 0.1 0.3
v -0.2 0.1 0.3
v -0.5 0.1 0.2
v -0.4 0.1 0.2
v -0.3 0.1 0.2
v -0.2 0.1 0.2
v -0.0999999 0.1 0.2
v 1.19209e-07 0.1 0.2
v -0.4 0.1 0.1
v -0.3 0.1 0.1
v -0.2 0.1 0.1
v -0.0999999 0.1 0.1
v 1.19209e-07 0.1 0.1
v 0.1 0.1 0.1
v -0.3 0.1 0
v -0.2 0.1 0
v -0.0999999 0.1 0
v 1.19209e-07 0.1 0
v 0.1 0.1 0
v 0.2 0.1 0
v -0.3 0.1 -0.1
v -0.2 0.1 -0.1
v -0.0999999 0.1 -0.1
v 0.1 0.1 -0.1
v 0.2 0.1 -0.1
v 0.3 0.1 -0.1
v -0.2 0.1 -0.2
v -0.0999999 0.1 -0.2
v 1.19209e-07 0.1 -0.2
v 0.2 0.1 -0.2
v 0.3 0.1 -0.2
v 0.4 0.1 -0.2
v -0.0999999 0.1 -0.3
v 1.19209e-07 0.1 -0.3
v 0.1 0.1 -0.3
v 0.3 0.1 -0.3
v 0.4 0.1 -0.3
v 0.5 0.1 -0.3
v 1.19209e-07 0.1 -0.4
v 0.1 0.1 -0.4
v 0.2 0.1 -0.4
v 0.1 0.1 -0.5
v 0.2 0.1 -0.5
v 0.4 0.1 -0.5
v 0.5 0.1 -0.5
v 0.2 0.1 -0.6
v 0.4 0.1 -0.6

# faces
f 3/4/1 2/4/1 1/4/1
f 4/4/1 2/4/1 3/4/1
f 7/4/1 6/4/1 5/4/1
f 8/4/1 6/4/1 7/4/1
f 11/4/1 10/4/1 9/4/1
f 12/4/1 10/4/1 11/4/1
f 15/4/1 14/4/1 13/4/1
f 16/4/1 14/4/1 15/4/1
f 19/4/1 18/4/1 17/4/1
f 20/4/1 18/4/1 19/4/1
f 23/4/1 22/4/1 21/4/1
f 24/4/1 22/4/1 23/4/1
f 27/4/1 26/4/1 25/4/1
f 28/4/1 26/4/1 27/4/1
f 31/4/1 30/4/1 29/4/1
f 32/4/1 30/4/1 31/4/1
f 35/4/1 34/4/1 33/4/1
f 36/4/1 34/4/1 35/4/1
f 39/4/1 38/4/1 37/4/1
f 40/4/1 38/4/1 39/4/1
f 43/4/1 42/4/1 41/4/1
f 44/4/1 42/4/1 43/4/1
f 47/4/1 46/4/1 45/4/1
f 48/4/1 46/4/1 47/4/1
f 51/4/1 50/4/1 49/4/1
f 52/4/1 50/4/1 51/4/1
f 55/4/1 54/4/1 53/4/1
f 56/4/1 54/4/1 55/4/1
f 60/4/1 58/4/1 57/4/1
f 61/2/1 59/2/1 58/2/1
f 61/4/1 58/4/1 60/4/1
f 62/2/1 59/2/1 61/2/1
f 65/2/1 64/2/1 63/2/1
f 66/2/1 64/2/1 65/2/1
f 69/2/1 68/2/1 67/2/1
f 70/2/1 68/2/1 69/2/1
f 73/2/1 72/2/1 71/2/1
f 74/2/1 72/2/1 73/2/1
f 77/2/1 76/2/1 75/2/1
f 78/2/1 76/2/1 77/2/1
f 81/2/1 80/2/1 79/2/1
f 82/2/1 80/2/1 81/2/1
f 83/4/2 84/4/2 85/4/2
f 85/4/2 84/4/2 86/4/2
f 87/4/2 88/4/2 89/4/2
f 89/4/2 88/4/2 90/4/2
f 91/4/2 92/4/2 93/4/2
f 93/4/2 92/4/2 94/4/2
f 95/4/2 96/4/2 97/4/2
f 97/4/2 96/4/2 98/4/2
f 99/4/2 100/4/2 101/4/2
f 101/4/2 100/4/2 102/4/2
f 103/4/2 104/4/2 105/4/2
f 105/4/2 104/4/2 106/4/2
f 107/4/2 108/4/2 109/4/2
f 109/4/2 108/4/2 110/4/2
f 111/4/2 112/4/2 113/4/2
f 113/4/2 112/4/2 114/4/2
f 115/4/2 116/4/2 117/4/2
f 117/4/2 116/4/2 118/4/2
f 119/4/2 120/4/2 121/4/2
f 121/4/2 120/4/2 122/4/2
f 123/4/2 124/4/2 125/4/2
f 125/4/2 124/4/2 126/4/2
f 127/4/2 128/4/2 129/4/2
f 129/4/2 128/4/2 130/4/2
f 131/4/2 132/4/2 133/4/2
f 133/4/2 132/4/2 134/4/2
f 135/4/2 136/4/2 137/4/2
f 137/4/2 136/4/2 138/4/2
f 139/2/2 140/2/2 141/2/2
f 141/2/2 140/2/2 142/2/2
f 143/2/2 144/2/2 145/2/2
f 145/2/2 144/2/2 146/2/2
f 147/2/2 148/2/2 149/2/2
f 149/2/2 148/2/2 150/2/2
f 151/2/2 152/2/2 153/2/2
f 153/2/2 152/2/2 154/2/2
f 155/2/2 156/2/2 159/2/2
f 159/2/2 156/2/2 160/2/2
f 157/2/2 158/2/2 161/2/2
f 161/2/2 158/2/2 162/2/2
f 163/2/2 164/2/2 165/2/2
f 165/2/2 164/2/2 166/2/2
f 169/4/3 168/4/3 167/4/3
f 170/4/3 168/4/3 169/4/3
f 173/4/3 172/4/3 171/4/3
f 174/4/3 172/4/3 173/4/3
f 177/4/3 176/4/3 175/4/3
f 178/4/3 176/4/3 177/4/3
f 181/4/3 180/4/3 179/4/3
f 182/4/3 180/4/3 181/4/3
f 185/4/3 184/4/3 183/4/3
f 186/4/3 184/4/3 185/4/3
f 189/4/3 188/4/3 187/4/3
f 190/4/3 188/4/3 189/4/3
f 193/4/3 192/4/3 191/4/3
f 194/4/3 192/4/3 193/4/3
f 197/4/3 196/4/3 195/4/3
f 198/4/3 196/4/3 197/4/3
f 201/4/3 200/4/3 199/4/3
f 202/4/3 200/4/3 201/4/3
f 205/4/3 204/4/3 203/4/3
f 206/4/3 204/4/3 205/4/3
f 209/4/3 208/4/3 207/4/3
f 210/4/3 208/4/3 209/4/3
f 213/4/3 212/4/3 211/4/3
f 214/4/3 212/4/3 213/4/3
f 217/4/3 216/4/3 215/4/3
f 218/4/3 216/4/3 217/4/3
f 221/4/3 220/4/3 219/4/3
f 222/4/3 220/4/3 221/4/3
f 225/4/3 224/4/3 223/4/3
f 226/4/3 224/4/3 225/4/3
f 227/2/3 226/2/3 225/2/3
f 228/2/3 226/2/3 227/2/3
f 231/2/3 230/2/3 229/2/3
f 232/2/3 230/2/3 231/2/3
f 235/2/3 234/2/3 233/2/3
f 236/2/3 234/2/3 235/2/3
f 239/2/3 238/2/3 237/2/3
f 240/2/3 238/2/3 239/2/3
f 243/2/3 242/2/3 241/2/3
f 244/2/3 242/2/3 243/2/3
f 247/2/3 246/2/3 245/2/3
f 248/2/3 246/2/3 247/2/3
f 249/4/4 250/4/4 251/4/4
f 251/4/4 250/4/4 252/4/4
f 253/4/4 254/4/4 255/4/4
f 255/4/4 254/4/4 256/4/4
f 257/4/4 258/4/4 259/4/4
f 259/4/4 258/4/4 260/4/4
f 261/4/4 262/4/4 263/4/4
f 263/4/4 262/4/4 264/4/4
f 265/4/4 266/4/4 267/4/4
f 267/4/4 266/4/4 268/4/4
f 269/4/4 270/4/4 271/4/4
f 271/4/4 270/4/4 272/4/4
f 273/4/4 274/4/4 275/4/4
f 275/4/4 274/4/4 276/4/4
f 277/4/4 278/4/4 279/4/4
f 279/4/4 278/4/4 280/4/4
f 281/4/4 282/4/4 283/4/4
f 283/4/4 282/4/4 284/4/4
f 285/4/4 286/4/4 287/4/4
f 287/4/4 286/4/4 288/4/4
f 289/4/4 290/4/4 291/4/4
f 291/4/4 290/4/4 292/4/4
f 293/4/4 294/4/4 295/4/4
f 295/4/4 294/4/4 296/4/4
f 297/4/4 298/4/4 299/4/4
f 299/4/4 298/4/4 300/4/4
f 301/4/4 302/4/4 303/4/4
f 303/4/4 302/4/4 304/4/4
f 305/2/4 306/2/4 307/2/4
f 307/2/4 306/2/4 308/2/4
f 309/2/4 310/2/4 311/2/4
f 311/2/4 310/2/4 312/2/4
f 313/2/4 314/2/4 315/2/4
f 315/2/4 314/2/4 316/2/4
f 317/2/4 318/2/4 319/2/4
f 319/2/4 318/2/4 320/2/4
f 321/2/4 322/2/4 323/2/4
f 323/2/4 322/2/4 324/2/4
f 325/2/4 326/2/4 327/2/4
f 327/2/4 326/2/4 328/2/4
f 329/2/4 330/2/4 331/2/4
f 331/2/4 330/2/4 332/2/4
f 335/4/5 334/4/5 333/4/5
f 336/4/5 334/4/5 335/4/5
f 338/4/5 335/4/5 333/4/5
f 339/3/5 336/3/5 335/3/5
f 339/4/5 335/4/5 338/4/5
f 340/4/5 337/4/5 336/4/5
f 340/3/5 336/3/5 339/3/5
f 341/4/5 337/4/5 340/4/5
f 343/4/5 340/4/5 339/4/5
f 344/3/5 341/3/5 340/3/5
f 344/4/5 340/4/5 343/4/5
f 345/4/5 342/4/5 341/4/5
f 345/3/5 341/3/5 344/3/5
f 346/4/5 342/4/5 345/4/5
f 348/4/5 345/4/5 344/4/5
f 349/3/5 346/3/5 345/3/5
f 349/4/5 345/4/5 348/4/5
f 350/4/5 347/4/5 346/4/5
f 350/3/5 346/3/5 349/3/5
f 351/4/5 347/4/5 350/4/5
f 353/4/5 350/4/5 349/4/5
f 354/3/5 351/3/5 350/3/5
f 354/4/5 350/4/5 353/4/5
f 355/4/5 352/4/5 351/4/5
f 355/3/5 351/3/5 354/3/5
f 356/4/5 352/4/5 355/4/5
f 358/4/5 355/4/5 354/4/5
f 359/3/5 356/3/5 355/3/5
f 359/4/5 355/4/5 358/4/5
f 360/4/5 357/4/5 356/4/5
f 360/3/5 356/3/5 359/3/5
f 361/4/5 357/4/5 360/4/5
f 363/4/5 360/4/5 359/4/5
f 364/3/5 361/3/5 360/3/5
f 364/4/5 360/4/5 363/4/5
f 365/4/5 362/4/5 361/4/5
f 365/3/5 361/3/5 364/3/5
f 366/4/5 362/4/5 365/4/5
f 368/4/5 365/4/5 364/4/5
f 369/3/5 366/3/5 365/3/5
f 369/4/5 365/4/5 368/4/5
f 370/4/5 367/4/5 366/4/5
f 370/3/5 366/3/5 369/3/5
f 371/4/5 367/4/5 370/4/5
f 373/4/5 370/4/5 369/4/5
f 374/3/5 371/3/5 370/3/5
f 374/4/5 370/4/5 373/4/5
f 375/4/5 372/4/5 371/4/5
f 375/3/5 371/3/5 374/3/5
f 376/4/5 372/4/5 375/4/5
f 378/4/5 375/4/5 374/4/5
f 379/3/5 376/3/5 375/3/5
f 379/4/5 375/4/5 378/4/5
f 380/4/5 377/4/5 376/4/5
f 380/3/5 376/3/5 379/3/5
f 381/4/5 377/4/5 380/4/5
f 383/4/5 380/4/5 379/4/5
f 384/3/5 381/3/5 380/3/5
f 384/4/5 380/4/5 383/4/5
f 385/4/5 382/4/5 381/4/5
f 385/3/5 381/3/5 384/3/5
f 386/4/5 382/4/5 385/4/5
f 388/4/5 385/4/5 384/4/5
f 389/3/5 386/3/5 385/3/5
f 389/4/5 385/4/5 388/4/5
f 390/4/5 387/4/5 386/4/5
f 390/3/5 386/3/5 389/3/5
f 391/4/5 387/4/5 390/4/5
f 393/4/5 390/4/5 389/4/5
f 394/3/5 391/3/5 390/3/5
f 394/4/5 390/4/5 393/4/5
f 395/4/5 392/4/5 391/4/5
f 395/3/5 391/3/5 394/3/5
f 396/4/5 392/4/5 395/4/5
f 398/4/5 395/4/5 394/4/5
f 399/3/5 396/3/5 395/3/5
f 399/4/5 395/4/5 398/4/5
f 400/4/5 397/4/5 396/4/5
f 400/3/5 396/3/5 399/3/5
f 401/4/5 397/4/5 400/4/5
f 404/4/5 400/4/5 399/4/5
f 405/3/5 401/3/5 400/3/5
f 405/4/5 400/4/5 404/4/5
f 406/4/5 402/4/5 401/4/5
f 406/3/5 401/3/5 405/3/5
f 407/2/5 403/2/5 402/2/5
f 407/4/5 402/4/5 406/4/5
f 408/2/5 403/2/5 407/2/5
f 410/4/5 406/4/5 405/4/5
f 411/3/5 407/3/5 406/3/5
f 411/4/5 406/4/5 410/4/5
f 412/1/5 408/1/5 407/1/5
f 412/3/5 407/3/5 411/3/5
f 413/2/5 409/2/5 408/2/5
f 413/1/5 408/1/5 412/1/5
f 414/2/5 409/2/5 413/2/5
f 416/2/5 411/2/5 410/2/5
f 417/1/5 412/1/5 411/1/5
f 417/2/5 411/2/5 416/2/5
f 417/1/5 413/1/5 412/1/5
f 417/1/5 414/1/5 413/1/5
f 418/1/5 414/1/5 417/1/5
f 419/2/5 415/2/5 414/2/5
f 419/1/5 414/1/5 418/1/5
f 420/2/5 415/2/5 419/2/5
f 422/2/5 418/2/5 417/2/5
f 423/1/5 420/1/5 419/1/5
f 423/2/5 418/2/5 422/2/5
f 423/1/5 419/1/5 418/1/5
f 424/1/5 420/1/5 423/1/5
f 425/2/5 421/2/5 420/2/5
f 425/1/5 420/1/5 424/1/5
f 426/2/5 421/2/5 425/2/5
f 428/2/5 424/2/5 423/2/5
f 429/1/5 426/1/5 425/1/5
f 429/2/5 424/2/5 428/2/5
f 429/1/5 425/1/5 424/1/5
f 430/1/5 426/1/5 429/1/5
f 431/2/5 427/2/5 426/2/5
f 431/1/5 426/1/5 430/1/5
f 432/2/5 427/2/5 431/2/5
f 434/2/5 430/2/5 429/2/5
f 435/1/5 432/1/5 431/1/5
f 435/2/5 430/2/5 434/2/5
f 435/1/5 431/1/5 430/1/5
f 436/1/5 432/1/5 435/1/5
f 437/2/5 436/2/5 435/2/5
f 438/1/5 432/1/5 436/1/5
f 438/2/5 436/2/5 437/2/5
f 439/2/5 433/2/5 432/2/5
f 439/1/5 432/1/5 438/1/5
f 440/2/5 433/2/5 439/2/5
f 441/2/5 439/2/5 438/2/5
f 442/2/5 439/2/5 441/2/5
f 443/4/6 444/4/6 445/4/6
f 445/4/6 444/4/6 446/4/6
f 443/4/6 445/4/6 448/4/6
f 445/3/6 446/3/6 449/3/6
f 448/4/6 445/4/6 449/4/6
f 446/4/6 447/4/6 450/4/6
f 449/3/6 446/3/6 450/3/6
f 450/4/6 447/4/6 451/4/6
f 449/4/6 450/4/6 453/4/6
f 450/3/6 451/3/6 454/3/6
f 453/4/6 450/4/6 454/4/6
f 451/4/6 452/4/6 455/4/6
f 454/3/6 451/3/6 455/3/6
f 455/4/6 452/4/6 456/4/6
f 454/4/6 455/4/6 458/4/6
f 455/3/6 456/3/6 459/3/6
f 458/4/6 455/4/6 459/4/6
f 456/4/6 457/4/6 460/4/6
f 459/3/6 456/3/6 460/3/6
f 460/4/6 457/4/6 461/4/6
f 459/4/6 460/4/6 463/4/6
f 460/3/6 461/3/6 464/3/6
f 463/4/6 460/4/6 464/4/6
f 461/4/6 462/4/6 465/4/6
f 464/3/6 461/3/6 465/3/6
f 465/4/6 462/4/6 466/4/6
f 464/4/6 465/4/6 468/4/6
f 465/3/6 466/3/6 469/3/6
f 468/4/6 465/4/6 469/4/6
f 466/4/6 467/4/6 470/4/6
f 469/3/6 466/3/6 470/3/6
f 470/4/6 467/4/6 471/4/6
f 469/4/6 470/4/6 473/4/6
f 470/3/6 471/3/6 474/3/6
f 473/4/6 470/4/6 474/4/6
f 471/4/6 472/4/6 475/4/6
f 474/3/6 471/3/6 475/3/6
f 475/4/6 472/4/6 476/4/6
f 474/4/6 475/4/6 478/4/6
f 475/3/6 476/3/6 479/3/6
f 478/4/6 475/4/6 479/4/6
f 476/4/6 477/4/6 480/4/6
f 479/3/6 476/3/6 480/3/6
f 480/4/6 477/4/6 481/4/6
f 479/4/6 480/4/6 483/4/6
f 480/3/6 481/3/6 484/3/6
f 483/4/6 480/4/6 484/4/6
f 481/4/6 482/4/6 485/4/6
f 484/3/6 481/3/6 485/3/6
f 485/4/6 482/4/6 486/4/6
f 484/4/6 485/4/6 488/4/6
f 485/3/6 486/3/6 489/3/6
f 488/4/6 485/4/6 489/4/6
f 486/4/6 487/4/6 490/4/6
f 489/3/6 486/3/6 490/3/6
f 490/4/6 487/4/6 491/4/6
f 489/4/6 490/4/6 493/4/6
f 490/3/6 491/3/6 494/3/6
f 493/4/6 490/4/6 494/4/6
f 491/4/6 492/4/6 495/4/6
f 494/3/6 491/3/6 495/3/6
f 495/4/6 492/4/6 496/4/6
f 494/4/6 495/4/6 498/4/6
f 495/3/6 496/3/6 499/3/6
f 498/4/6 495/4/6 499/4/6
f 496/4/6 497/4/6 500/4/6
f 499/3/6 496/3/6 500/3/6
f 500/4/6 497/4/6 501/4/6
f 499/4/6 500/4/6 503/4/6
f 500/3/6 501/3/6 504/3/6
f 503/4/6 500/4/6 504/4/6
f 501/4/6 502/4/6 505/4/6
f 504/3/6 501/3/6 505/3/6
f 505/4/6 502/4/6 506/4/6
f 504/4/6 505/4/6 508/4/6
f 505/3/6 506/3/6 509/3/6
f 508/4/6 505/4/6 509/4/6
f 506/4/6 507/4/6 510/4/6
f 509/3/6 506/3/6 510/3/6
f 510/4/6 507/4/6 511/4/6
f 509/4/6 510/4/6 514/4/6
f 510/3/6 511/3/6 515/3/6
f 514/4/6 510/4/6 515/4/6
f 511/4/6 512/4/6 516/4/6
f 515/3/6 511/3/6 516/3/6
f 512/2/6 513/2/6 517/2/6
f 516/4/6 512/4/6 517/4/6
f 517/2/6 513/2/6 518/2/6
f 515/4/6 516/4/6 520/4/6
f 516/3/6 517/3/6 521/3/6
f 520/4/6 516/4/6 521/4/6
f 517/1/6 518/1/6 522/1/6
f 521/3/6 517/3/6 522/3/6
f 518/2/6 519/2/6 523/2/6
f 522/1/6 518/1/6 523/1/6
f 523/2/6 519/2/6 524/2/6
f 520/2/6 521/2/6 526/2/6
f 521/1/6 522/1/6 527/1/6
f 526/2/6 521/2/6 527/2/6
f 522/1/6 523/1/6 527/1/6
f 523/1/6 524/1/6 527/1/6
f 527/1/6 524/1/6 528/1/6
f 524/2/6 525/2/6 529/2/6
f 528/1/6 524/1/6 529/1/6
f 529/2/6 525/2/6 530/2/6
f 527/2/6 528/2/6 532/2/6
f 529/1/6 530/1/6 533/1/6
f 532/2/6 528/2/6 533/2/6
f 528/1/6 529/1/6 533/1/6
f 533/1/6 530/1/6 534/1/6
f 530/2/6 531/2/6 535/2/6
f 534/1/6 530/1/6 535/1/6
f 535/2/6 531/2/6 536/2/6
f 533/2/6 534/2/6 538/2/6
f 535/1/6 536/1/6 539/1/6
f 538/2/6 534/2/6 539/2/6
f 534/1/6 535/1/6 539/1/6
f 539/1/6 536/1/6 540/1/6
f 536/2/6 537/2/6 541/2/6
f 540/1/6 536/1/6 541/1/6
f 541/2/6 537/2/6 542/2/6
f 539/2/6 540/2/6 544/2/6
f 541/1/6 542/1/6 545/1/6
f 544/2/6 540/2/6 545/2/6
f 540/1/6 541/1/6 545/1/6
f 545/1/6 542/1/6 546/1/6
f 545/2/6 546/2/6 547/2/6
f 546/1/6 542/1/6 548/1/6
f 547/2/6 546/2/6 548/2/6
f 542/2/6 543/2/6 549/2/6
f 548/1/6 542/1/6 549/1/6
f 549/2/6 543/2/6 550/2/6
f 548/2/6 549/2/6 551/2/6
f 551/2/6 549/2/6 552/2/6
